<svg xmlns="http://www.w3.org/2000/svg" xmlns:xlink="http://www.w3.org/1999/xlink" width="2000" zoomAndPan="magnify" viewBox="0 0 1500 1499.999933" height="2000" preserveAspectRatio="xMidYMid meet" version="1.0"><defs><g/><clipPath id="d03626d3ab"><path d="M 0.621094 7.25 L 457.378906 7.25 L 457.378906 450.496094 L 0.621094 450.496094 Z M 0.621094 7.25 " clip-rule="nonzero"/></clipPath><clipPath id="934e54eb59"><path d="M 0.621094 0.25 L 457.371094 0.25 L 457.371094 443.496094 L 0.621094 443.496094 Z M 0.621094 0.25 " clip-rule="nonzero"/></clipPath><linearGradient x1="0.00406098" gradientTransform="matrix(1.731419, 0, 0, 1.731419, 0.614559, 0.251607)" y1="128" x2="263.80499" gradientUnits="userSpaceOnUse" y2="128" id="4c9426f6c1"><stop stop-opacity="1" stop-color="rgb(0%, 0%, 0%)" offset="0"/><stop stop-opacity="1" stop-color="rgb(0.306702%, 0.221252%, 0.0335693%)" offset="0.00390625"/><stop stop-opacity="1" stop-color="rgb(0.613403%, 0.444031%, 0.0671387%)" offset="0.0078125"/><stop stop-opacity="1" stop-color="rgb(0.918579%, 0.665283%, 0.100708%)" offset="0.0117187"/><stop stop-opacity="1" stop-color="rgb(1.225281%, 0.888062%, 0.134277%)" offset="0.015625"/><stop stop-opacity="1" stop-color="rgb(1.531982%, 1.109314%, 0.167847%)" offset="0.0195312"/><stop stop-opacity="1" stop-color="rgb(1.838684%, 1.332092%, 0.201416%)" offset="0.0234375"/><stop stop-opacity="1" stop-color="rgb(2.145386%, 1.554871%, 0.234985%)" offset="0.0273438"/><stop stop-opacity="1" stop-color="rgb(2.452087%, 1.777649%, 0.268555%)" offset="0.03125"/><stop stop-opacity="1" stop-color="rgb(2.757263%, 1.998901%, 0.302124%)" offset="0.0351563"/><stop stop-opacity="1" stop-color="rgb(3.063965%, 2.22168%, 0.337219%)" offset="0.0390625"/><stop stop-opacity="1" stop-color="rgb(3.370667%, 2.442932%, 0.370789%)" offset="0.0429688"/><stop stop-opacity="1" stop-color="rgb(3.677368%, 2.66571%, 0.404358%)" offset="0.046875"/><stop stop-opacity="1" stop-color="rgb(3.982544%, 2.886963%, 0.437927%)" offset="0.0507813"/><stop stop-opacity="1" stop-color="rgb(4.289246%, 3.109741%, 0.471497%)" offset="0.0546875"/><stop stop-opacity="1" stop-color="rgb(4.595947%, 3.330994%, 0.505066%)" offset="0.0585938"/><stop stop-opacity="1" stop-color="rgb(4.902649%, 3.553772%, 0.538635%)" offset="0.0625"/><stop stop-opacity="1" stop-color="rgb(5.207825%, 3.775024%, 0.572205%)" offset="0.0664063"/><stop stop-opacity="1" stop-color="rgb(5.514526%, 3.997803%, 0.605774%)" offset="0.0703125"/><stop stop-opacity="1" stop-color="rgb(5.821228%, 4.219055%, 0.639343%)" offset="0.0742188"/><stop stop-opacity="1" stop-color="rgb(6.12793%, 4.441833%, 0.672913%)" offset="0.078125"/><stop stop-opacity="1" stop-color="rgb(6.433105%, 4.663086%, 0.706482%)" offset="0.0820313"/><stop stop-opacity="1" stop-color="rgb(6.739807%, 4.885864%, 0.741577%)" offset="0.0859375"/><stop stop-opacity="1" stop-color="rgb(7.046509%, 5.107117%, 0.775146%)" offset="0.0898438"/><stop stop-opacity="1" stop-color="rgb(7.35321%, 5.329895%, 0.808716%)" offset="0.09375"/><stop stop-opacity="1" stop-color="rgb(7.659912%, 5.552673%, 0.842285%)" offset="0.0976563"/><stop stop-opacity="1" stop-color="rgb(7.966614%, 5.775452%, 0.875854%)" offset="0.101563"/><stop stop-opacity="1" stop-color="rgb(8.27179%, 5.996704%, 0.909424%)" offset="0.105469"/><stop stop-opacity="1" stop-color="rgb(8.578491%, 6.219482%, 0.942993%)" offset="0.109375"/><stop stop-opacity="1" stop-color="rgb(8.885193%, 6.440735%, 0.976562%)" offset="0.113281"/><stop stop-opacity="1" stop-color="rgb(9.191895%, 6.663513%, 1.010132%)" offset="0.117188"/><stop stop-opacity="1" stop-color="rgb(9.49707%, 6.884766%, 1.043701%)" offset="0.121094"/><stop stop-opacity="1" stop-color="rgb(9.803772%, 7.107544%, 1.078796%)" offset="0.125"/><stop stop-opacity="1" stop-color="rgb(10.110474%, 7.328796%, 1.112366%)" offset="0.128906"/><stop stop-opacity="1" stop-color="rgb(10.417175%, 7.551575%, 1.145935%)" offset="0.132812"/><stop stop-opacity="1" stop-color="rgb(10.722351%, 7.772827%, 1.179504%)" offset="0.136719"/><stop stop-opacity="1" stop-color="rgb(11.029053%, 7.995605%, 1.213074%)" offset="0.140625"/><stop stop-opacity="1" stop-color="rgb(11.335754%, 8.216858%, 1.246643%)" offset="0.144531"/><stop stop-opacity="1" stop-color="rgb(11.642456%, 8.439636%, 1.280212%)" offset="0.148438"/><stop stop-opacity="1" stop-color="rgb(11.947632%, 8.660889%, 1.313782%)" offset="0.152344"/><stop stop-opacity="1" stop-color="rgb(12.254333%, 8.883667%, 1.347351%)" offset="0.15625"/><stop stop-opacity="1" stop-color="rgb(12.561035%, 9.106445%, 1.38092%)" offset="0.160156"/><stop stop-opacity="1" stop-color="rgb(12.867737%, 9.329224%, 1.41449%)" offset="0.164062"/><stop stop-opacity="1" stop-color="rgb(13.174438%, 9.550476%, 1.448059%)" offset="0.167969"/><stop stop-opacity="1" stop-color="rgb(13.48114%, 9.773254%, 1.483154%)" offset="0.171875"/><stop stop-opacity="1" stop-color="rgb(13.786316%, 9.994507%, 1.516724%)" offset="0.175781"/><stop stop-opacity="1" stop-color="rgb(14.093018%, 10.217285%, 1.550293%)" offset="0.179687"/><stop stop-opacity="1" stop-color="rgb(14.399719%, 10.438538%, 1.583862%)" offset="0.183594"/><stop stop-opacity="1" stop-color="rgb(14.706421%, 10.661316%, 1.617432%)" offset="0.1875"/><stop stop-opacity="1" stop-color="rgb(15.011597%, 10.882568%, 1.651001%)" offset="0.191406"/><stop stop-opacity="1" stop-color="rgb(15.318298%, 11.105347%, 1.68457%)" offset="0.195312"/><stop stop-opacity="1" stop-color="rgb(15.625%, 11.326599%, 1.71814%)" offset="0.199219"/><stop stop-opacity="1" stop-color="rgb(15.931702%, 11.549377%, 1.751709%)" offset="0.203125"/><stop stop-opacity="1" stop-color="rgb(16.236877%, 11.77063%, 1.785278%)" offset="0.207031"/><stop stop-opacity="1" stop-color="rgb(16.543579%, 11.993408%, 1.820374%)" offset="0.210937"/><stop stop-opacity="1" stop-color="rgb(16.850281%, 12.214661%, 1.853943%)" offset="0.214844"/><stop stop-opacity="1" stop-color="rgb(17.156982%, 12.437439%, 1.887512%)" offset="0.21875"/><stop stop-opacity="1" stop-color="rgb(17.462158%, 12.660217%, 1.921082%)" offset="0.222656"/><stop stop-opacity="1" stop-color="rgb(17.76886%, 12.882996%, 1.954651%)" offset="0.226562"/><stop stop-opacity="1" stop-color="rgb(18.075562%, 13.104248%, 1.98822%)" offset="0.230469"/><stop stop-opacity="1" stop-color="rgb(18.382263%, 13.327026%, 2.02179%)" offset="0.234375"/><stop stop-opacity="1" stop-color="rgb(18.688965%, 13.548279%, 2.055359%)" offset="0.238281"/><stop stop-opacity="1" stop-color="rgb(18.995667%, 13.771057%, 2.088928%)" offset="0.242187"/><stop stop-opacity="1" stop-color="rgb(19.300842%, 13.99231%, 2.122498%)" offset="0.246094"/><stop stop-opacity="1" stop-color="rgb(19.607544%, 14.215088%, 2.157593%)" offset="0.25"/><stop stop-opacity="1" stop-color="rgb(19.914246%, 14.43634%, 2.191162%)" offset="0.253906"/><stop stop-opacity="1" stop-color="rgb(20.220947%, 14.659119%, 2.224731%)" offset="0.257812"/><stop stop-opacity="1" stop-color="rgb(20.526123%, 14.880371%, 2.258301%)" offset="0.261719"/><stop stop-opacity="1" stop-color="rgb(20.832825%, 15.103149%, 2.29187%)" offset="0.265625"/><stop stop-opacity="1" stop-color="rgb(21.139526%, 15.324402%, 2.325439%)" offset="0.269531"/><stop stop-opacity="1" stop-color="rgb(21.446228%, 15.54718%, 2.359009%)" offset="0.273437"/><stop stop-opacity="1" stop-color="rgb(21.751404%, 15.768433%, 2.392578%)" offset="0.277344"/><stop stop-opacity="1" stop-color="rgb(22.058105%, 15.991211%, 2.426147%)" offset="0.28125"/><stop stop-opacity="1" stop-color="rgb(22.364807%, 16.212463%, 2.459717%)" offset="0.285156"/><stop stop-opacity="1" stop-color="rgb(22.671509%, 16.435242%, 2.493286%)" offset="0.289062"/><stop stop-opacity="1" stop-color="rgb(22.976685%, 16.65802%, 2.526855%)" offset="0.292969"/><stop stop-opacity="1" stop-color="rgb(23.283386%, 16.880798%, 2.561951%)" offset="0.296875"/><stop stop-opacity="1" stop-color="rgb(23.590088%, 17.102051%, 2.59552%)" offset="0.300781"/><stop stop-opacity="1" stop-color="rgb(23.89679%, 17.324829%, 2.629089%)" offset="0.304687"/><stop stop-opacity="1" stop-color="rgb(24.203491%, 17.546082%, 2.662659%)" offset="0.308594"/><stop stop-opacity="1" stop-color="rgb(24.510193%, 17.76886%, 2.696228%)" offset="0.3125"/><stop stop-opacity="1" stop-color="rgb(24.815369%, 17.990112%, 2.729797%)" offset="0.316406"/><stop stop-opacity="1" stop-color="rgb(25.12207%, 18.212891%, 2.763367%)" offset="0.320312"/><stop stop-opacity="1" stop-color="rgb(25.428772%, 18.434143%, 2.796936%)" offset="0.324219"/><stop stop-opacity="1" stop-color="rgb(25.735474%, 18.656921%, 2.830505%)" offset="0.328125"/><stop stop-opacity="1" stop-color="rgb(26.040649%, 18.878174%, 2.864075%)" offset="0.332031"/><stop stop-opacity="1" stop-color="rgb(26.347351%, 19.100952%, 2.89917%)" offset="0.335937"/><stop stop-opacity="1" stop-color="rgb(26.654053%, 19.322205%, 2.932739%)" offset="0.339844"/><stop stop-opacity="1" stop-color="rgb(26.960754%, 19.544983%, 2.966309%)" offset="0.34375"/><stop stop-opacity="1" stop-color="rgb(27.26593%, 19.766235%, 2.999878%)" offset="0.347656"/><stop stop-opacity="1" stop-color="rgb(27.572632%, 19.989014%, 3.033447%)" offset="0.351562"/><stop stop-opacity="1" stop-color="rgb(27.879333%, 20.211792%, 3.067017%)" offset="0.355469"/><stop stop-opacity="1" stop-color="rgb(28.186035%, 20.43457%, 3.100586%)" offset="0.359375"/><stop stop-opacity="1" stop-color="rgb(28.491211%, 20.655823%, 3.134155%)" offset="0.363281"/><stop stop-opacity="1" stop-color="rgb(28.797913%, 20.878601%, 3.167725%)" offset="0.367187"/><stop stop-opacity="1" stop-color="rgb(29.104614%, 21.099854%, 3.201294%)" offset="0.371094"/><stop stop-opacity="1" stop-color="rgb(29.411316%, 21.322632%, 3.234863%)" offset="0.375"/><stop stop-opacity="1" stop-color="rgb(29.718018%, 21.543884%, 3.268433%)" offset="0.378906"/><stop stop-opacity="1" stop-color="rgb(30.024719%, 21.766663%, 3.303528%)" offset="0.382812"/><stop stop-opacity="1" stop-color="rgb(30.329895%, 21.987915%, 3.337097%)" offset="0.386719"/><stop stop-opacity="1" stop-color="rgb(30.636597%, 22.210693%, 3.370667%)" offset="0.390625"/><stop stop-opacity="1" stop-color="rgb(30.943298%, 22.431946%, 3.404236%)" offset="0.394531"/><stop stop-opacity="1" stop-color="rgb(31.25%, 22.654724%, 3.437805%)" offset="0.398438"/><stop stop-opacity="1" stop-color="rgb(31.555176%, 22.875977%, 3.471375%)" offset="0.402344"/><stop stop-opacity="1" stop-color="rgb(31.861877%, 23.098755%, 3.504944%)" offset="0.40625"/><stop stop-opacity="1" stop-color="rgb(32.168579%, 23.320007%, 3.538513%)" offset="0.410156"/><stop stop-opacity="1" stop-color="rgb(32.475281%, 23.542786%, 3.572083%)" offset="0.414062"/><stop stop-opacity="1" stop-color="rgb(32.780457%, 23.764038%, 3.605652%)" offset="0.417969"/><stop stop-opacity="1" stop-color="rgb(33.087158%, 23.986816%, 3.640747%)" offset="0.421875"/><stop stop-opacity="1" stop-color="rgb(33.39386%, 24.209595%, 3.674316%)" offset="0.425781"/><stop stop-opacity="1" stop-color="rgb(33.700562%, 24.432373%, 3.707886%)" offset="0.429688"/><stop stop-opacity="1" stop-color="rgb(34.005737%, 24.653625%, 3.741455%)" offset="0.433594"/><stop stop-opacity="1" stop-color="rgb(34.312439%, 24.876404%, 3.775024%)" offset="0.4375"/><stop stop-opacity="1" stop-color="rgb(34.619141%, 25.097656%, 3.808594%)" offset="0.441406"/><stop stop-opacity="1" stop-color="rgb(34.925842%, 25.320435%, 3.842163%)" offset="0.445312"/><stop stop-opacity="1" stop-color="rgb(35.232544%, 25.541687%, 3.875732%)" offset="0.449219"/><stop stop-opacity="1" stop-color="rgb(35.539246%, 25.764465%, 3.909302%)" offset="0.453125"/><stop stop-opacity="1" stop-color="rgb(35.844421%, 25.985718%, 3.942871%)" offset="0.457031"/><stop stop-opacity="1" stop-color="rgb(36.151123%, 26.208496%, 3.97644%)" offset="0.460938"/><stop stop-opacity="1" stop-color="rgb(36.457825%, 26.429749%, 4.01001%)" offset="0.464844"/><stop stop-opacity="1" stop-color="rgb(36.764526%, 26.652527%, 4.045105%)" offset="0.46875"/><stop stop-opacity="1" stop-color="rgb(37.069702%, 26.873779%, 4.078674%)" offset="0.472656"/><stop stop-opacity="1" stop-color="rgb(37.376404%, 27.096558%, 4.112244%)" offset="0.476562"/><stop stop-opacity="1" stop-color="rgb(37.683105%, 27.31781%, 4.145813%)" offset="0.480469"/><stop stop-opacity="1" stop-color="rgb(37.989807%, 27.540588%, 4.179382%)" offset="0.484375"/><stop stop-opacity="1" stop-color="rgb(38.294983%, 27.763367%, 4.212952%)" offset="0.488281"/><stop stop-opacity="1" stop-color="rgb(38.601685%, 27.986145%, 4.246521%)" offset="0.492188"/><stop stop-opacity="1" stop-color="rgb(38.908386%, 28.207397%, 4.28009%)" offset="0.496094"/><stop stop-opacity="1" stop-color="rgb(39.215088%, 28.430176%, 4.31366%)" offset="0.5"/><stop stop-opacity="1" stop-color="rgb(39.520264%, 28.651428%, 4.347229%)" offset="0.503906"/><stop stop-opacity="1" stop-color="rgb(39.826965%, 28.874207%, 4.382324%)" offset="0.507813"/><stop stop-opacity="1" stop-color="rgb(40.133667%, 29.095459%, 4.415894%)" offset="0.511719"/><stop stop-opacity="1" stop-color="rgb(40.440369%, 29.318237%, 4.449463%)" offset="0.515625"/><stop stop-opacity="1" stop-color="rgb(40.74707%, 29.53949%, 4.483032%)" offset="0.519531"/><stop stop-opacity="1" stop-color="rgb(41.053772%, 29.762268%, 4.516602%)" offset="0.523438"/><stop stop-opacity="1" stop-color="rgb(41.358948%, 29.983521%, 4.550171%)" offset="0.527344"/><stop stop-opacity="1" stop-color="rgb(41.665649%, 30.206299%, 4.58374%)" offset="0.53125"/><stop stop-opacity="1" stop-color="rgb(41.972351%, 30.427551%, 4.61731%)" offset="0.535156"/><stop stop-opacity="1" stop-color="rgb(42.279053%, 30.65033%, 4.650879%)" offset="0.539062"/><stop stop-opacity="1" stop-color="rgb(42.584229%, 30.871582%, 4.684448%)" offset="0.542969"/><stop stop-opacity="1" stop-color="rgb(42.89093%, 31.09436%, 4.719543%)" offset="0.546875"/><stop stop-opacity="1" stop-color="rgb(43.197632%, 31.317139%, 4.753113%)" offset="0.550781"/><stop stop-opacity="1" stop-color="rgb(43.504333%, 31.539917%, 4.786682%)" offset="0.554688"/><stop stop-opacity="1" stop-color="rgb(43.809509%, 31.761169%, 4.820251%)" offset="0.558594"/><stop stop-opacity="1" stop-color="rgb(44.116211%, 31.983948%, 4.853821%)" offset="0.5625"/><stop stop-opacity="1" stop-color="rgb(44.422913%, 32.2052%, 4.88739%)" offset="0.566406"/><stop stop-opacity="1" stop-color="rgb(44.729614%, 32.427979%, 4.920959%)" offset="0.570312"/><stop stop-opacity="1" stop-color="rgb(45.03479%, 32.649231%, 4.954529%)" offset="0.574219"/><stop stop-opacity="1" stop-color="rgb(45.341492%, 32.872009%, 4.988098%)" offset="0.578125"/><stop stop-opacity="1" stop-color="rgb(45.648193%, 33.093262%, 5.021667%)" offset="0.582031"/><stop stop-opacity="1" stop-color="rgb(45.954895%, 33.31604%, 5.055237%)" offset="0.585937"/><stop stop-opacity="1" stop-color="rgb(46.261597%, 33.537292%, 5.088806%)" offset="0.589844"/><stop stop-opacity="1" stop-color="rgb(46.568298%, 33.760071%, 5.123901%)" offset="0.59375"/><stop stop-opacity="1" stop-color="rgb(46.873474%, 33.981323%, 5.157471%)" offset="0.597656"/><stop stop-opacity="1" stop-color="rgb(47.180176%, 34.204102%, 5.19104%)" offset="0.601563"/><stop stop-opacity="1" stop-color="rgb(47.486877%, 34.425354%, 5.224609%)" offset="0.605469"/><stop stop-opacity="1" stop-color="rgb(47.793579%, 34.648132%, 5.258179%)" offset="0.609375"/><stop stop-opacity="1" stop-color="rgb(48.098755%, 34.869385%, 5.291748%)" offset="0.613281"/><stop stop-opacity="1" stop-color="rgb(48.405457%, 35.092163%, 5.325317%)" offset="0.617188"/><stop stop-opacity="1" stop-color="rgb(48.712158%, 35.314941%, 5.358887%)" offset="0.621094"/><stop stop-opacity="1" stop-color="rgb(49.01886%, 35.53772%, 5.392456%)" offset="0.625"/><stop stop-opacity="1" stop-color="rgb(49.324036%, 35.758972%, 5.426025%)" offset="0.628906"/><stop stop-opacity="1" stop-color="rgb(49.630737%, 35.98175%, 5.461121%)" offset="0.632812"/><stop stop-opacity="1" stop-color="rgb(49.937439%, 36.203003%, 5.49469%)" offset="0.636719"/><stop stop-opacity="1" stop-color="rgb(50.244141%, 36.425781%, 5.528259%)" offset="0.640625"/><stop stop-opacity="1" stop-color="rgb(50.549316%, 36.647034%, 5.561829%)" offset="0.644531"/><stop stop-opacity="1" stop-color="rgb(50.856018%, 36.869812%, 5.595398%)" offset="0.648438"/><stop stop-opacity="1" stop-color="rgb(51.16272%, 37.091064%, 5.628967%)" offset="0.652344"/><stop stop-opacity="1" stop-color="rgb(51.469421%, 37.313843%, 5.662537%)" offset="0.65625"/><stop stop-opacity="1" stop-color="rgb(51.776123%, 37.535095%, 5.696106%)" offset="0.660156"/><stop stop-opacity="1" stop-color="rgb(52.082825%, 37.757874%, 5.729675%)" offset="0.664062"/><stop stop-opacity="1" stop-color="rgb(52.388%, 37.979126%, 5.763245%)" offset="0.667969"/><stop stop-opacity="1" stop-color="rgb(52.694702%, 38.201904%, 5.796814%)" offset="0.671875"/><stop stop-opacity="1" stop-color="rgb(53.001404%, 38.423157%, 5.830383%)" offset="0.675781"/><stop stop-opacity="1" stop-color="rgb(53.308105%, 38.645935%, 5.865479%)" offset="0.679687"/><stop stop-opacity="1" stop-color="rgb(53.613281%, 38.868713%, 5.899048%)" offset="0.683594"/><stop stop-opacity="1" stop-color="rgb(53.919983%, 39.091492%, 5.932617%)" offset="0.6875"/><stop stop-opacity="1" stop-color="rgb(54.226685%, 39.312744%, 5.966187%)" offset="0.691406"/><stop stop-opacity="1" stop-color="rgb(54.533386%, 39.535522%, 5.999756%)" offset="0.695312"/><stop stop-opacity="1" stop-color="rgb(54.838562%, 39.756775%, 6.033325%)" offset="0.699219"/><stop stop-opacity="1" stop-color="rgb(55.145264%, 39.979553%, 6.066895%)" offset="0.703125"/><stop stop-opacity="1" stop-color="rgb(55.451965%, 40.200806%, 6.100464%)" offset="0.707031"/><stop stop-opacity="1" stop-color="rgb(55.758667%, 40.423584%, 6.134033%)" offset="0.710938"/><stop stop-opacity="1" stop-color="rgb(56.063843%, 40.644836%, 6.167603%)" offset="0.714844"/><stop stop-opacity="1" stop-color="rgb(56.370544%, 40.867615%, 6.202698%)" offset="0.71875"/><stop stop-opacity="1" stop-color="rgb(56.677246%, 41.088867%, 6.236267%)" offset="0.722656"/><stop stop-opacity="1" stop-color="rgb(56.983948%, 41.311646%, 6.269836%)" offset="0.726562"/><stop stop-opacity="1" stop-color="rgb(57.290649%, 41.532898%, 6.303406%)" offset="0.730469"/><stop stop-opacity="1" stop-color="rgb(57.597351%, 41.755676%, 6.336975%)" offset="0.734375"/><stop stop-opacity="1" stop-color="rgb(57.902527%, 41.976929%, 6.370544%)" offset="0.738281"/><stop stop-opacity="1" stop-color="rgb(58.209229%, 42.199707%, 6.404114%)" offset="0.742188"/><stop stop-opacity="1" stop-color="rgb(58.51593%, 42.420959%, 6.437683%)" offset="0.746094"/><stop stop-opacity="1" stop-color="rgb(58.822632%, 42.643738%, 6.471252%)" offset="0.75"/><stop stop-opacity="1" stop-color="rgb(59.127808%, 42.866516%, 6.504822%)" offset="0.753906"/><stop stop-opacity="1" stop-color="rgb(59.434509%, 43.089294%, 6.539917%)" offset="0.757812"/><stop stop-opacity="1" stop-color="rgb(59.741211%, 43.310547%, 6.573486%)" offset="0.761719"/><stop stop-opacity="1" stop-color="rgb(60.047913%, 43.533325%, 6.607056%)" offset="0.765625"/><stop stop-opacity="1" stop-color="rgb(60.353088%, 43.754578%, 6.640625%)" offset="0.769531"/><stop stop-opacity="1" stop-color="rgb(60.65979%, 43.977356%, 6.674194%)" offset="0.773438"/><stop stop-opacity="1" stop-color="rgb(60.966492%, 44.198608%, 6.707764%)" offset="0.777344"/><stop stop-opacity="1" stop-color="rgb(61.273193%, 44.421387%, 6.741333%)" offset="0.78125"/><stop stop-opacity="1" stop-color="rgb(61.578369%, 44.642639%, 6.774902%)" offset="0.785156"/><stop stop-opacity="1" stop-color="rgb(61.885071%, 44.865417%, 6.808472%)" offset="0.789062"/><stop stop-opacity="1" stop-color="rgb(62.191772%, 45.08667%, 6.842041%)" offset="0.792969"/><stop stop-opacity="1" stop-color="rgb(62.498474%, 45.309448%, 6.87561%)" offset="0.796875"/><stop stop-opacity="1" stop-color="rgb(62.80365%, 45.530701%, 6.90918%)" offset="0.800781"/><stop stop-opacity="1" stop-color="rgb(63.110352%, 45.753479%, 6.944275%)" offset="0.804687"/><stop stop-opacity="1" stop-color="rgb(63.417053%, 45.974731%, 6.977844%)" offset="0.808594"/><stop stop-opacity="1" stop-color="rgb(63.723755%, 46.19751%, 7.011414%)" offset="0.8125"/><stop stop-opacity="1" stop-color="rgb(64.030457%, 46.420288%, 7.044983%)" offset="0.816406"/><stop stop-opacity="1" stop-color="rgb(64.337158%, 46.643066%, 7.078552%)" offset="0.820312"/><stop stop-opacity="1" stop-color="rgb(64.642334%, 46.864319%, 7.112122%)" offset="0.824219"/><stop stop-opacity="1" stop-color="rgb(64.949036%, 47.087097%, 7.145691%)" offset="0.828125"/><stop stop-opacity="1" stop-color="rgb(65.255737%, 47.30835%, 7.17926%)" offset="0.832031"/><stop stop-opacity="1" stop-color="rgb(65.562439%, 47.531128%, 7.21283%)" offset="0.835938"/><stop stop-opacity="1" stop-color="rgb(65.867615%, 47.75238%, 7.246399%)" offset="0.839844"/><stop stop-opacity="1" stop-color="rgb(66.174316%, 47.975159%, 7.281494%)" offset="0.84375"/><stop stop-opacity="1" stop-color="rgb(66.481018%, 48.196411%, 7.315063%)" offset="0.847656"/><stop stop-opacity="1" stop-color="rgb(66.78772%, 48.419189%, 7.348633%)" offset="0.851562"/><stop stop-opacity="1" stop-color="rgb(67.092896%, 48.640442%, 7.382202%)" offset="0.855469"/><stop stop-opacity="1" stop-color="rgb(67.399597%, 48.86322%, 7.415771%)" offset="0.859375"/><stop stop-opacity="1" stop-color="rgb(67.706299%, 49.084473%, 7.449341%)" offset="0.863281"/><stop stop-opacity="1" stop-color="rgb(68.013%, 49.307251%, 7.48291%)" offset="0.867188"/><stop stop-opacity="1" stop-color="rgb(68.318176%, 49.528503%, 7.516479%)" offset="0.871094"/><stop stop-opacity="1" stop-color="rgb(68.624878%, 49.751282%, 7.550049%)" offset="0.875"/><stop stop-opacity="1" stop-color="rgb(68.93158%, 49.972534%, 7.583618%)" offset="0.878906"/><stop stop-opacity="1" stop-color="rgb(69.238281%, 50.195312%, 7.617188%)" offset="0.882812"/><stop stop-opacity="1" stop-color="rgb(69.544983%, 50.418091%, 7.650757%)" offset="0.886719"/><stop stop-opacity="1" stop-color="rgb(69.851685%, 50.640869%, 7.685852%)" offset="0.890625"/><stop stop-opacity="1" stop-color="rgb(70.15686%, 50.862122%, 7.719421%)" offset="0.894531"/><stop stop-opacity="1" stop-color="rgb(70.463562%, 51.0849%, 7.752991%)" offset="0.898438"/><stop stop-opacity="1" stop-color="rgb(70.770264%, 51.306152%, 7.78656%)" offset="0.902344"/><stop stop-opacity="1" stop-color="rgb(71.076965%, 51.528931%, 7.820129%)" offset="0.90625"/><stop stop-opacity="1" stop-color="rgb(71.382141%, 51.750183%, 7.853699%)" offset="0.910156"/><stop stop-opacity="1" stop-color="rgb(71.688843%, 51.972961%, 7.887268%)" offset="0.914062"/><stop stop-opacity="1" stop-color="rgb(71.995544%, 52.194214%, 7.920837%)" offset="0.917969"/><stop stop-opacity="1" stop-color="rgb(72.302246%, 52.416992%, 7.954407%)" offset="0.921875"/><stop stop-opacity="1" stop-color="rgb(72.607422%, 52.638245%, 7.987976%)" offset="0.925781"/><stop stop-opacity="1" stop-color="rgb(72.914124%, 52.861023%, 8.023071%)" offset="0.929687"/><stop stop-opacity="1" stop-color="rgb(73.220825%, 53.082275%, 8.056641%)" offset="0.933594"/><stop stop-opacity="1" stop-color="rgb(73.527527%, 53.305054%, 8.09021%)" offset="0.9375"/><stop stop-opacity="1" stop-color="rgb(73.832703%, 53.526306%, 8.123779%)" offset="0.941406"/><stop stop-opacity="1" stop-color="rgb(74.139404%, 53.749084%, 8.157349%)" offset="0.945313"/><stop stop-opacity="1" stop-color="rgb(74.446106%, 53.971863%, 8.190918%)" offset="0.949219"/><stop stop-opacity="1" stop-color="rgb(74.752808%, 54.194641%, 8.224487%)" offset="0.953125"/><stop stop-opacity="1" stop-color="rgb(75.059509%, 54.415894%, 8.258057%)" offset="0.957031"/><stop stop-opacity="1" stop-color="rgb(75.366211%, 54.638672%, 8.291626%)" offset="0.960938"/><stop stop-opacity="1" stop-color="rgb(75.671387%, 54.859924%, 8.325195%)" offset="0.964844"/><stop stop-opacity="1" stop-color="rgb(75.978088%, 55.082703%, 8.360291%)" offset="0.96875"/><stop stop-opacity="1" stop-color="rgb(76.28479%, 55.303955%, 8.39386%)" offset="0.972656"/><stop stop-opacity="1" stop-color="rgb(76.591492%, 55.526733%, 8.427429%)" offset="0.976562"/><stop stop-opacity="1" stop-color="rgb(76.896667%, 55.747986%, 8.460999%)" offset="0.980469"/><stop stop-opacity="1" stop-color="rgb(77.203369%, 55.970764%, 8.494568%)" offset="0.984375"/><stop stop-opacity="1" stop-color="rgb(77.510071%, 56.192017%, 8.528137%)" offset="0.988281"/><stop stop-opacity="1" stop-color="rgb(77.816772%, 56.414795%, 8.561707%)" offset="0.992188"/><stop stop-opacity="1" stop-color="rgb(78.121948%, 56.636047%, 8.595276%)" offset="0.996094"/><stop stop-opacity="1" stop-color="rgb(78.42865%, 56.858826%, 8.628845%)" offset="1"/></linearGradient><clipPath id="c1c9ff7a52"><rect x="0" width="458" y="0" height="444"/></clipPath><clipPath id="850e9533d6"><path d="M 73.277344 0.496094 L 222 0.496094 L 222 343 L 73.277344 343 Z M 73.277344 0.496094 " clip-rule="nonzero"/></clipPath><clipPath id="c4de39e90a"><rect x="0" width="458" y="0" height="451"/></clipPath><clipPath id="d5e86e0399"><path d="M 307.09375 1033.992188 L 1192.90625 1033.992188 L 1192.90625 1122.503906 L 307.09375 1122.503906 Z M 307.09375 1033.992188 " clip-rule="nonzero"/></clipPath><clipPath id="8cc3ee1e50"><path d="M 0.09375 0.992188 L 885.90625 0.992188 L 885.90625 89.503906 L 0.09375 89.503906 Z M 0.09375 0.992188 " clip-rule="nonzero"/></clipPath><clipPath id="2bf2d3be5e"><rect x="0" width="886" y="0" height="90"/></clipPath><clipPath id="e6a74ef094"><rect x="0" width="758" y="0" height="200"/></clipPath></defs><rect x="-150" width="1800" fill="#ffffff" y="-149.999993" height="1799.99992" fill-opacity="1"/><rect x="-150" width="1800" fill="#ffffff" y="-149.999993" height="1799.99992" fill-opacity="1"/><g transform="matrix(1, 0, 0, 1, 521, 377)"><g clip-path="url(#c4de39e90a)"><g clip-path="url(#d03626d3ab)"><g transform="matrix(1, 0, 0, 1, 0, 7)"><g clip-path="url(#c1c9ff7a52)"><g clip-path="url(#934e54eb59)"><path fill="url(#4c9426f6c1)" d="M 0.621094 0.25 L 0.621094 443.496094 L 457.371094 443.496094 L 457.371094 0.25 Z M 0.621094 0.25 " fill-rule="nonzero"/></g></g></g></g><path fill="#ffffff" d="M 315.324219 260.777344 L 296.058594 260.777344 C 298.03125 266.71875 302 271.25 307.941406 275.21875 C 294.382812 262.75 297.207031 261.894531 315.324219 260.777344 Z M 315.324219 260.777344 " fill-opacity="1" fill-rule="evenodd"/><path fill="#ffffff" d="M 236.054688 62.910156 L 236.054688 114.882812 C 236.320312 115.441406 236.40625 116.089844 236.054688 116.765625 L 236.054688 120.324219 C 239.46875 123.648438 245.527344 131.03125 240.027344 136.972656 C 241.730469 136.972656 244.261719 141.503906 240.027344 143.769531 C 248.792969 149.710938 285.617188 138.945312 294.675781 134.710938 C 305.148438 129.621094 312.796875 131.296875 321.589844 138.121094 C 322.445312 138.972656 323.5625 139.53125 324.414062 139.828125 L 324.414062 139.238281 C 324.710938 138.679688 325.269531 138.386719 325.5625 138.679688 C 326.121094 138.679688 326.121094 138.972656 326.414062 139.238281 L 326.710938 140.09375 C 327.828125 139.796875 328.121094 138.121094 326.710938 134.710938 C 333.210938 137.269531 332.355469 143.769531 328.121094 146.035156 L 342.859375 198.449219 L 359.566406 257.660156 C 359.566406 257.953125 359.566406 257.953125 359.566406 258.21875 C 355.59375 273.515625 342.003906 284.574219 325.296875 284.574219 C 308.882812 284.574219 295 273.515625 291.324219 258.21875 L 291.324219 257.632812 L 307.738281 198.421875 L 322.472656 146.003906 C 318.796875 144.59375 316.828125 140.621094 313.121094 138.914062 C 308.296875 136.945312 304.058594 136.945312 298.675781 140.328125 C 283.675781 149.945312 258.175781 161.5625 240.054688 157.886719 C 240.054688 157.886719 241.46875 162.976562 237.230469 165.828125 C 238.644531 165.828125 241.46875 170.652344 236.085938 172.625 L 236.085938 223.746094 C 237.496094 235.6875 239.230469 246.246094 240.613281 250.542969 C 240.613281 250.542969 243.171875 255.367188 238.054688 255.628906 C 241.171875 255.925781 244.289062 260.160156 238.613281 262.984375 C 238.613281 262.984375 257.878906 275.160156 238.320312 291.605469 C 241.144531 291.605469 245.113281 296.988281 238.320312 299.253906 L 263.234375 298.957031 L 263.234375 308.578125 L 249.644531 308.578125 L 249.644531 316.519531 L 240.027344 316.519531 C 240.027344 316.519531 235.203125 331.8125 286.734375 331.253906 L 286.734375 334.667969 L 311.382812 337.226562 L 311.382812 342.3125 L 236.054688 342.3125 L 236.054688 412.996094 L 384.714844 413.171875 L 384.714844 62.792969 Z M 236.054688 62.910156 " fill-opacity="1" fill-rule="evenodd"/><path fill="#ffffff" d="M 324.386719 146.59375 L 309.679688 199.007812 L 293.53125 257.101562 L 324.386719 257.101562 Z M 324.386719 146.59375 " fill-opacity="1" fill-rule="evenodd"/><path fill="#ffffff" d="M 341.09375 199.007812 L 326.386719 146.59375 L 326.386719 257.101562 L 357.242188 257.101562 Z M 341.09375 199.007812 " fill-opacity="1" fill-rule="evenodd"/><g clip-path="url(#850e9533d6)"><path fill="#ffffff" d="M 146.28125 339.550781 L 146.28125 337.285156 L 171.195312 334.726562 L 171.195312 331.3125 C 222.730469 331.871094 217.90625 316.578125 217.90625 316.578125 L 208.289062 316.578125 L 208.289062 308.636719 L 194.699219 308.636719 L 194.699219 299.015625 L 219.347656 299.3125 C 212.847656 297.046875 216.789062 291.664062 219.347656 291.664062 C 200.082031 275.21875 219.347656 263.042969 219.347656 263.042969 C 213.671875 260.21875 216.789062 255.953125 219.90625 255.691406 C 214.523438 255.394531 217.347656 250.601562 217.347656 250.601562 C 218.671875 246.1875 220.4375 235.1875 221.878906 222.863281 L 221.878906 172.652344 C 216.496094 170.683594 219.054688 165.859375 220.730469 165.859375 C 216.199219 163.035156 217.613281 157.917969 217.613281 157.917969 C 199.757812 161.59375 174.285156 149.976562 159.285156 140.355469 C 153.902344 136.945312 149.664062 136.945312 144.546875 138.945312 C 141.164062 140.652344 139.164062 144.621094 135.195312 146.035156 L 149.929688 198.449219 L 166.636719 257.660156 C 166.636719 257.953125 166.636719 257.953125 166.636719 258.21875 C 162.667969 273.515625 148.78125 284.574219 132.371094 284.574219 C 115.957031 284.574219 102.074219 273.515625 98.101562 258.21875 L 98.101562 257.632812 L 114.839844 198.449219 L 129.574219 146.035156 C 125.605469 143.769531 124.75 137.238281 131.28125 134.710938 C 129.574219 138.121094 129.871094 139.796875 131.28125 140.089844 L 131.574219 139.238281 C 131.574219 138.679688 132.132812 138.386719 132.722656 138.679688 C 133.015625 138.679688 133.28125 138.972656 133.28125 139.238281 L 133.574219 139.796875 C 134.429688 139.503906 135.28125 138.945312 136.398438 138.089844 C 145.164062 131.296875 152.8125 129.589844 163.3125 134.679688 C 172.375 138.914062 209.199219 149.710938 217.671875 143.738281 C 213.433594 141.472656 215.964844 136.945312 217.964844 136.945312 C 212.054688 130.796875 218.613281 123.207031 221.9375 120.0625 L 221.9375 116.972656 C 221.4375 116.148438 221.523438 115.382812 221.9375 114.707031 L 221.9375 0.640625 L 73.277344 0.550781 L 73.277344 342.375 L 146.339844 342.285156 L 146.339844 339.550781 Z M 146.28125 339.550781 " fill-opacity="1" fill-rule="evenodd"/></g><path fill="#ffffff" d="M 164.402344 257.101562 L 148.253906 199.007812 L 133.546875 146.59375 L 133.546875 257.101562 Z M 164.402344 257.101562 " fill-opacity="1" fill-rule="evenodd"/><path fill="#ffffff" d="M 218.757812 135.269531 C 218.523438 132.207031 219.757812 128.621094 221.878906 124.589844 L 221.878906 123.765625 C 218.375 127.355469 217.023438 131.296875 218.757812 135.269531 Z M 218.757812 135.269531 " fill-opacity="1" fill-rule="evenodd"/><path fill="#ffffff" d="M 122.191406 260.777344 L 103.21875 260.777344 C 104.925781 266.71875 108.867188 271.25 114.839844 275.21875 C 101.542969 262.75 104.074219 261.894531 122.191406 260.777344 Z M 122.191406 260.777344 " fill-opacity="1" fill-rule="evenodd"/><path fill="#ffffff" d="M 214.816406 281.75 C 214.257812 275.808594 215.671875 270.984375 218.496094 266.71875 C 213.671875 270.691406 212.554688 275.78125 214.816406 281.75 Z M 214.816406 281.75 " fill-opacity="1" fill-rule="evenodd"/><path fill="#ffffff" d="M 131.546875 146.59375 L 116.839844 199.007812 L 100.398438 257.101562 L 131.546875 257.101562 Z M 131.546875 146.59375 " fill-opacity="1" fill-rule="evenodd"/></g></g><g clip-path="url(#d5e86e0399)"><g transform="matrix(1, 0, 0, 1, 307, 1033)"><g clip-path="url(#2bf2d3be5e)"><g clip-path="url(#8cc3ee1e50)"><path fill="#000000" d="M 0.09375 0.992188 L 885.921875 0.992188 L 885.921875 89.503906 L 0.09375 89.503906 Z M 0.09375 0.992188 " fill-opacity="1" fill-rule="nonzero"/></g></g></g></g><g transform="matrix(1, 0, 0, 1, 371, 829)"><g clip-path="url(#e6a74ef094)"><g fill="#000000" fill-opacity="1"><g transform="translate(2.540748, 160.415723)"><g><path d="M 15.640625 0 L 15.640625 -115.09375 L 32.6875 -115.09375 L 32.6875 -9.390625 C 39.757812 -7.304688 45.4375 -6.265625 49.71875 -6.265625 L 81.1875 -11.65625 L 79.109375 0 Z M 15.640625 0 "/></g></g></g><g fill="#000000" fill-opacity="1"><g transform="translate(87.209334, 160.415723)"><g><path d="M 15.640625 0 L 15.640625 -115.09375 L 85.359375 -115.09375 L 83.625 -103.453125 L 51.28125 -108.84375 C 45.601562 -108.84375 39.347656 -107.851562 32.515625 -105.875 L 32.515625 -63.625 L 71.109375 -63.625 L 71.109375 -57.03125 L 32.515625 -57.03125 L 32.515625 -6.265625 L 86.40625 -11.65625 L 84.671875 0 Z M 15.640625 0 "/></g></g></g><g fill="#000000" fill-opacity="1"><g transform="translate(184.917232, 160.415723)"><g><path d="M 61.71875 -61.890625 L 107.09375 0 L 85.359375 0 L 52.671875 -50.765625 L 15.828125 0 L 5.21875 0 L 48.6875 -55.8125 L 7.296875 -115.09375 L 29.03125 -115.09375 L 57.890625 -67.28125 L 94.0625 -115.09375 L 104.65625 -115.09375 Z M 61.71875 -61.890625 "/></g></g></g><g fill="#000000" fill-opacity="1"><g transform="translate(297.229154, 160.415723)"><g/></g></g><g fill="#000000" fill-opacity="1"><g transform="translate(340.69355, 160.415723)"><g><path d="M 43.46875 2.265625 C 35.351562 2.265625 27.585938 0.117188 20.171875 -4.171875 C 16.347656 -6.367188 13.242188 -9.640625 10.859375 -13.984375 C 8.484375 -18.335938 7.296875 -23.410156 7.296875 -29.203125 C 7.296875 -36.859375 10.222656 -43.550781 16.078125 -49.28125 C 21.929688 -55.019531 30.828125 -58.875 42.765625 -60.84375 C 38.359375 -70.695312 36.15625 -79.738281 36.15625 -87.96875 C 36.15625 -92.957031 37.664062 -98.640625 40.6875 -105.015625 C 42.425781 -108.609375 45.378906 -111.617188 49.546875 -114.046875 C 53.722656 -116.484375 58.007812 -117.703125 62.40625 -117.703125 C 66.8125 -117.703125 71.503906 -117.238281 76.484375 -116.3125 C 81.472656 -115.382812 85.242188 -114.34375 87.796875 -113.1875 L 86.0625 -102.234375 C 78.644531 -107.796875 69.488281 -110.578125 58.59375 -110.578125 C 53.03125 -106.984375 50.25 -100.550781 50.25 -91.28125 C 50.25 -82.007812 53.085938 -71.398438 58.765625 -59.453125 C 64.441406 -47.515625 72.09375 -36.738281 81.71875 -27.125 C 85.769531 -33.726562 89.941406 -43.8125 94.234375 -57.375 C 91.222656 -57.375 89.078125 -57.429688 87.796875 -57.546875 L 87.796875 -62.9375 C 99.503906 -63.28125 109.359375 -64.554688 117.359375 -66.765625 L 114.40625 -58.0625 C 112.3125 -57.71875 108.3125 -57.429688 102.40625 -57.203125 C 97.769531 -43.054688 92.4375 -31.523438 86.40625 -22.609375 C 99.625 -11.128906 113.1875 -5.390625 127.09375 -5.390625 L 119.609375 0 C 105.929688 0 92.601562 -4.691406 79.625 -14.078125 C 69.539062 -3.179688 57.488281 2.265625 43.46875 2.265625 Z M 48.5 -5.90625 C 58.582031 -5.90625 67.394531 -9.847656 74.9375 -17.734375 C 62.53125 -27.929688 52.617188 -40.445312 45.203125 -55.28125 C 37.316406 -53.082031 31.546875 -49.578125 27.890625 -44.765625 C 24.242188 -39.953125 22.421875 -34.765625 22.421875 -29.203125 C 22.421875 -21.210938 24.882812 -15.332031 29.8125 -11.5625 C 34.738281 -7.789062 40.96875 -5.90625 48.5 -5.90625 Z M 48.5 -5.90625 "/></g></g></g><g fill="#000000" fill-opacity="1"><g transform="translate(475.954681, 160.415723)"><g/></g></g><g fill="#000000" fill-opacity="1"><g transform="translate(519.419078, 160.415723)"><g><path d="M 68.671875 2.09375 C 50.703125 2.09375 35.578125 -2.773438 23.296875 -12.515625 C 11.015625 -22.253906 4.875 -36.222656 4.875 -54.421875 C 4.875 -65.078125 6.898438 -74.578125 10.953125 -82.921875 C 15.003906 -91.273438 20.335938 -97.828125 26.953125 -102.578125 C 40.273438 -112.316406 55.222656 -117.1875 71.796875 -117.1875 C 81.421875 -117.1875 91.445312 -115.445312 101.875 -111.96875 L 100.140625 -100.140625 C 94.691406 -102.460938 90.460938 -104.203125 87.453125 -105.359375 C 78.753906 -108.484375 70.003906 -110.046875 61.203125 -110.046875 C 49.023438 -107.265625 39.660156 -101.238281 33.109375 -91.96875 C 26.566406 -82.695312 23.296875 -71.109375 23.296875 -57.203125 C 23.296875 -40.160156 27.757812 -27.03125 36.6875 -17.8125 C 45.613281 -8.601562 57.378906 -4 71.984375 -4 C 86.585938 -4 97.476562 -7.128906 104.65625 -13.390625 L 104.65625 -3.828125 C 94.695312 0.117188 82.703125 2.09375 68.671875 2.09375 Z M 68.671875 2.09375 "/></g></g></g><g fill="#000000" fill-opacity="1"><g transform="translate(629.297029, 160.415723)"><g><path d="M 67.984375 -117.1875 C 83.046875 -117.1875 95.503906 -112.226562 105.359375 -102.3125 C 115.210938 -92.40625 120.140625 -78.644531 120.140625 -61.03125 C 120.140625 -49.664062 118.164062 -39.722656 114.21875 -31.203125 C 110.28125 -22.679688 105.125 -16.101562 98.75 -11.46875 C 86.351562 -2.425781 72.675781 2.09375 57.71875 2.09375 C 42.769531 2.09375 30.394531 -2.914062 20.59375 -12.9375 C 10.800781 -22.96875 5.90625 -36.796875 5.90625 -54.421875 C 5.90625 -63.578125 7.207031 -71.832031 9.8125 -79.1875 C 12.425781 -86.550781 15.847656 -92.550781 20.078125 -97.1875 C 24.304688 -101.820312 29.203125 -105.707031 34.765625 -108.84375 C 44.972656 -114.40625 56.046875 -117.1875 67.984375 -117.1875 Z M 33.03125 -19.8125 C 36.039062 -14.71875 40.097656 -10.75 45.203125 -7.90625 C 50.304688 -5.070312 56.1875 -3.65625 62.84375 -3.65625 C 69.507812 -3.65625 75.453125 -5.332031 80.671875 -8.6875 C 85.890625 -12.050781 89.945312 -16.457031 92.84375 -21.90625 C 98.75 -32.800781 101.703125 -44.507812 101.703125 -57.03125 C 101.703125 -72.445312 98.632812 -84.847656 92.5 -94.234375 C 85.65625 -104.773438 74.351562 -110.046875 58.59375 -110.046875 C 47.34375 -106.109375 38.820312 -99.328125 33.03125 -89.703125 C 27.238281 -80.085938 24.34375 -69.195312 24.34375 -57.03125 C 24.34375 -42.1875 27.238281 -29.78125 33.03125 -19.8125 Z M 33.03125 -19.8125 "/></g></g></g></g></g><g fill="#ffffff" fill-opacity="1"><g transform="translate(467.917277, 1090.757574)"><g><path d="M 10.71875 0.25 C 9.0625 0.25 7.578125 -0.0390625 6.265625 -0.625 C 4.960938 -1.21875 3.941406 -2.035156 3.203125 -3.078125 C 2.460938 -4.117188 2.078125 -5.320312 2.046875 -6.6875 L 5.546875 -6.6875 C 5.660156 -5.519531 6.144531 -4.53125 7 -3.71875 C 7.851562 -2.914062 9.09375 -2.515625 10.71875 -2.515625 C 12.28125 -2.515625 13.507812 -2.90625 14.40625 -3.6875 C 15.3125 -4.46875 15.765625 -5.46875 15.765625 -6.6875 C 15.765625 -7.644531 15.5 -8.425781 14.96875 -9.03125 C 14.4375 -9.632812 13.773438 -10.09375 12.984375 -10.40625 C 12.191406 -10.71875 11.125 -11.050781 9.78125 -11.40625 C 8.132812 -11.84375 6.8125 -12.273438 5.8125 -12.703125 C 4.8125 -13.128906 3.957031 -13.804688 3.25 -14.734375 C 2.539062 -15.660156 2.1875 -16.898438 2.1875 -18.453125 C 2.1875 -19.828125 2.535156 -21.039062 3.234375 -22.09375 C 3.929688 -23.144531 4.910156 -23.957031 6.171875 -24.53125 C 7.429688 -25.113281 8.875 -25.40625 10.5 -25.40625 C 12.851562 -25.40625 14.78125 -24.816406 16.28125 -23.640625 C 17.78125 -22.460938 18.625 -20.90625 18.8125 -18.96875 L 15.21875 -18.96875 C 15.101562 -19.925781 14.597656 -20.769531 13.703125 -21.5 C 12.816406 -22.226562 11.644531 -22.59375 10.1875 -22.59375 C 8.8125 -22.59375 7.691406 -22.238281 6.828125 -21.53125 C 5.972656 -20.820312 5.546875 -19.832031 5.546875 -18.5625 C 5.546875 -17.65625 5.800781 -16.910156 6.3125 -16.328125 C 6.832031 -15.753906 7.46875 -15.316406 8.21875 -15.015625 C 8.976562 -14.722656 10.039062 -14.382812 11.40625 -14 C 13.0625 -13.539062 14.390625 -13.085938 15.390625 -12.640625 C 16.398438 -12.203125 17.265625 -11.519531 17.984375 -10.59375 C 18.710938 -9.675781 19.078125 -8.425781 19.078125 -6.84375 C 19.078125 -5.613281 18.75 -4.457031 18.09375 -3.375 C 17.445312 -2.300781 16.488281 -1.425781 15.21875 -0.75 C 13.945312 -0.0820312 12.445312 0.25 10.71875 0.25 Z M 10.71875 0.25 "/></g></g></g><g fill="#ffffff" fill-opacity="1"><g transform="translate(498.643082, 1090.757574)"><g><path d="M 18.203125 -25.078125 L 18.203125 -22.421875 L 11.375 -22.421875 L 11.375 0 L 8.09375 0 L 8.09375 -22.421875 L 1.21875 -22.421875 L 1.21875 -25.078125 Z M 18.203125 -25.078125 "/></g></g></g><g fill="#ffffff" fill-opacity="1"><g transform="translate(527.713956, 1090.757574)"><g><path d="M 15.984375 0 L 10 -10.25 L 6.046875 -10.25 L 6.046875 0 L 2.765625 0 L 2.765625 -25.078125 L 10.875 -25.078125 C 12.757812 -25.078125 14.351562 -24.753906 15.65625 -24.109375 C 16.96875 -23.460938 17.945312 -22.585938 18.59375 -21.484375 C 19.25 -20.378906 19.578125 -19.117188 19.578125 -17.703125 C 19.578125 -15.972656 19.078125 -14.445312 18.078125 -13.125 C 17.085938 -11.8125 15.597656 -10.9375 13.609375 -10.5 L 19.90625 0 Z M 6.046875 -12.875 L 10.875 -12.875 C 12.644531 -12.875 13.972656 -13.3125 14.859375 -14.1875 C 15.742188 -15.070312 16.1875 -16.242188 16.1875 -17.703125 C 16.1875 -19.191406 15.75 -20.34375 14.875 -21.15625 C 14 -21.96875 12.664062 -22.375 10.875 -22.375 L 6.046875 -22.375 Z M 6.046875 -12.875 "/></g></g></g><g fill="#ffffff" fill-opacity="1"><g transform="translate(559.195265, 1090.757574)"><g><path d="M 17.59375 -5.578125 L 6.65625 -5.578125 L 4.640625 0 L 1.1875 0 L 10.25 -24.9375 L 14.03125 -24.9375 L 23.0625 0 L 19.609375 0 Z M 16.65625 -8.234375 L 12.125 -20.90625 L 7.59375 -8.234375 Z M 16.65625 -8.234375 "/></g></g></g><g fill="#ffffff" fill-opacity="1"><g transform="translate(593.051028, 1090.757574)"><g><path d="M 18.203125 -25.078125 L 18.203125 -22.421875 L 11.375 -22.421875 L 11.375 0 L 8.09375 0 L 8.09375 -22.421875 L 1.21875 -22.421875 L 1.21875 -25.078125 Z M 18.203125 -25.078125 "/></g></g></g><g fill="#ffffff" fill-opacity="1"><g transform="translate(622.121903, 1090.757574)"><g><path d="M 6.046875 -22.421875 L 6.046875 -14.03125 L 15.1875 -14.03125 L 15.1875 -11.328125 L 6.046875 -11.328125 L 6.046875 -2.703125 L 16.265625 -2.703125 L 16.265625 0 L 2.765625 0 L 2.765625 -25.109375 L 16.265625 -25.109375 L 16.265625 -22.421875 Z M 6.046875 -22.421875 "/></g></g></g><g fill="#ffffff" fill-opacity="1"><g transform="translate(650.185434, 1090.757574)"><g><path d="M 21.765625 -17.8125 C 21.078125 -19.269531 20.070312 -20.398438 18.75 -21.203125 C 17.425781 -22.015625 15.890625 -22.421875 14.140625 -22.421875 C 12.390625 -22.421875 10.8125 -22.015625 9.40625 -21.203125 C 8.007812 -20.398438 6.90625 -19.25 6.09375 -17.75 C 5.289062 -16.257812 4.890625 -14.53125 4.890625 -12.5625 C 4.890625 -10.59375 5.289062 -8.863281 6.09375 -7.375 C 6.90625 -5.882812 8.007812 -4.738281 9.40625 -3.9375 C 10.8125 -3.132812 12.390625 -2.734375 14.140625 -2.734375 C 16.585938 -2.734375 18.601562 -3.460938 20.1875 -4.921875 C 21.769531 -6.390625 22.691406 -8.375 22.953125 -10.875 L 12.953125 -10.875 L 12.953125 -13.53125 L 26.453125 -13.53125 L 26.453125 -11.015625 C 26.253906 -8.953125 25.601562 -7.0625 24.5 -5.34375 C 23.394531 -3.625 21.941406 -2.265625 20.140625 -1.265625 C 18.347656 -0.273438 16.347656 0.21875 14.140625 0.21875 C 11.816406 0.21875 9.691406 -0.328125 7.765625 -1.421875 C 5.847656 -2.515625 4.332031 -4.03125 3.21875 -5.96875 C 2.101562 -7.914062 1.546875 -10.113281 1.546875 -12.5625 C 1.546875 -15.007812 2.101562 -17.207031 3.21875 -19.15625 C 4.332031 -21.113281 5.847656 -22.640625 7.765625 -23.734375 C 9.691406 -24.828125 11.816406 -25.375 14.140625 -25.375 C 16.804688 -25.375 19.164062 -24.710938 21.21875 -23.390625 C 23.269531 -22.066406 24.757812 -20.207031 25.6875 -17.8125 Z M 21.765625 -17.8125 "/></g></g></g><g fill="#ffffff" fill-opacity="1"><g transform="translate(687.782774, 1090.757574)"><g><path d="M 6.046875 -25.078125 L 6.046875 0 L 2.765625 0 L 2.765625 -25.078125 Z M 6.046875 -25.078125 "/></g></g></g><g fill="#ffffff" fill-opacity="1"><g transform="translate(706.240536, 1090.757574)"><g><path d="M 1.546875 -12.5625 C 1.546875 -15.007812 2.097656 -17.207031 3.203125 -19.15625 C 4.304688 -21.113281 5.8125 -22.644531 7.71875 -23.75 C 9.625 -24.851562 11.738281 -25.40625 14.0625 -25.40625 C 16.800781 -25.40625 19.191406 -24.742188 21.234375 -23.421875 C 23.273438 -22.109375 24.757812 -20.238281 25.6875 -17.8125 L 21.765625 -17.8125 C 21.078125 -19.320312 20.078125 -20.484375 18.765625 -21.296875 C 17.453125 -22.117188 15.882812 -22.53125 14.0625 -22.53125 C 12.3125 -22.53125 10.738281 -22.117188 9.34375 -21.296875 C 7.957031 -20.484375 6.867188 -19.328125 6.078125 -17.828125 C 5.285156 -16.328125 4.890625 -14.570312 4.890625 -12.5625 C 4.890625 -10.570312 5.285156 -8.828125 6.078125 -7.328125 C 6.867188 -5.828125 7.957031 -4.664062 9.34375 -3.84375 C 10.738281 -3.03125 12.3125 -2.625 14.0625 -2.625 C 15.882812 -2.625 17.453125 -3.023438 18.765625 -3.828125 C 20.078125 -4.628906 21.078125 -5.789062 21.765625 -7.3125 L 25.6875 -7.3125 C 24.757812 -4.90625 23.273438 -3.046875 21.234375 -1.734375 C 19.191406 -0.429688 16.800781 0.21875 14.0625 0.21875 C 11.738281 0.21875 9.625 -0.328125 7.71875 -1.421875 C 5.8125 -2.515625 4.304688 -4.03125 3.203125 -5.96875 C 2.097656 -7.914062 1.546875 -10.113281 1.546875 -12.5625 Z M 1.546875 -12.5625 "/></g></g></g><g fill="#ffffff" fill-opacity="1"><g transform="translate(743.622018, 1090.757574)"><g/></g></g><g fill="#ffffff" fill-opacity="1"><g transform="translate(762.835296, 1090.757574)"><g><path d="M 17.59375 -5.578125 L 6.65625 -5.578125 L 4.640625 0 L 1.1875 0 L 10.25 -24.9375 L 14.03125 -24.9375 L 23.0625 0 L 19.609375 0 Z M 16.65625 -8.234375 L 12.125 -20.90625 L 7.59375 -8.234375 Z M 16.65625 -8.234375 "/></g></g></g><g fill="#ffffff" fill-opacity="1"><g transform="translate(796.691059, 1090.757574)"><g><path d="M 5.96875 -25.078125 L 5.96875 -9.21875 C 5.96875 -6.976562 6.515625 -5.316406 7.609375 -4.234375 C 8.703125 -3.160156 10.21875 -2.625 12.15625 -2.625 C 14.082031 -2.625 15.585938 -3.160156 16.671875 -4.234375 C 17.765625 -5.316406 18.3125 -6.976562 18.3125 -9.21875 L 18.3125 -25.078125 L 21.59375 -25.078125 L 21.59375 -9.25 C 21.59375 -7.164062 21.171875 -5.40625 20.328125 -3.96875 C 19.492188 -2.539062 18.363281 -1.476562 16.9375 -0.78125 C 15.507812 -0.09375 13.90625 0.25 12.125 0.25 C 10.351562 0.25 8.753906 -0.09375 7.328125 -0.78125 C 5.898438 -1.476562 4.769531 -2.539062 3.9375 -3.96875 C 3.113281 -5.40625 2.703125 -7.164062 2.703125 -9.25 L 2.703125 -25.078125 Z M 5.96875 -25.078125 "/></g></g></g><g fill="#ffffff" fill-opacity="1"><g transform="translate(830.582803, 1090.757574)"><g><path d="M 18.203125 -25.078125 L 18.203125 -22.421875 L 11.375 -22.421875 L 11.375 0 L 8.09375 0 L 8.09375 -22.421875 L 1.21875 -22.421875 L 1.21875 -25.078125 Z M 18.203125 -25.078125 "/></g></g></g><g fill="#ffffff" fill-opacity="1"><g transform="translate(859.653677, 1090.757574)"><g><path d="M 22.09375 -25.078125 L 22.09375 0 L 18.8125 0 L 18.8125 -11.375 L 6.046875 -11.375 L 6.046875 0 L 2.765625 0 L 2.765625 -25.078125 L 6.046875 -25.078125 L 6.046875 -14.0625 L 18.8125 -14.0625 L 18.8125 -25.078125 Z M 22.09375 -25.078125 "/></g></g></g><g fill="#ffffff" fill-opacity="1"><g transform="translate(894.157016, 1090.757574)"><g><path d="M 14.140625 0.25 C 11.816406 0.25 9.691406 -0.289062 7.765625 -1.375 C 5.847656 -2.46875 4.332031 -3.992188 3.21875 -5.953125 C 2.101562 -7.910156 1.546875 -10.113281 1.546875 -12.5625 C 1.546875 -15.007812 2.101562 -17.207031 3.21875 -19.15625 C 4.332031 -21.113281 5.847656 -22.640625 7.765625 -23.734375 C 9.691406 -24.828125 11.816406 -25.375 14.140625 -25.375 C 16.492188 -25.375 18.628906 -24.828125 20.546875 -23.734375 C 22.460938 -22.640625 23.972656 -21.117188 25.078125 -19.171875 C 26.179688 -17.234375 26.734375 -15.03125 26.734375 -12.5625 C 26.734375 -10.09375 26.179688 -7.882812 25.078125 -5.9375 C 23.972656 -3.988281 22.460938 -2.46875 20.546875 -1.375 C 18.628906 -0.289062 16.492188 0.25 14.140625 0.25 Z M 14.140625 -2.59375 C 15.890625 -2.59375 17.46875 -3 18.875 -3.8125 C 20.28125 -4.625 21.382812 -5.785156 22.1875 -7.296875 C 22.988281 -8.816406 23.390625 -10.570312 23.390625 -12.5625 C 23.390625 -14.570312 22.988281 -16.328125 22.1875 -17.828125 C 21.382812 -19.328125 20.285156 -20.484375 18.890625 -21.296875 C 17.492188 -22.117188 15.910156 -22.53125 14.140625 -22.53125 C 12.367188 -22.53125 10.785156 -22.117188 9.390625 -21.296875 C 8.003906 -20.484375 6.90625 -19.328125 6.09375 -17.828125 C 5.289062 -16.328125 4.890625 -14.570312 4.890625 -12.5625 C 4.890625 -10.570312 5.289062 -8.816406 6.09375 -7.296875 C 6.90625 -5.785156 8.007812 -4.625 9.40625 -3.8125 C 10.8125 -3 12.390625 -2.59375 14.140625 -2.59375 Z M 14.140625 -2.59375 "/></g></g></g><g fill="#ffffff" fill-opacity="1"><g transform="translate(932.042175, 1090.757574)"><g><path d="M 15.984375 0 L 10 -10.25 L 6.046875 -10.25 L 6.046875 0 L 2.765625 0 L 2.765625 -25.078125 L 10.875 -25.078125 C 12.757812 -25.078125 14.351562 -24.753906 15.65625 -24.109375 C 16.96875 -23.460938 17.945312 -22.585938 18.59375 -21.484375 C 19.25 -20.378906 19.578125 -19.117188 19.578125 -17.703125 C 19.578125 -15.972656 19.078125 -14.445312 18.078125 -13.125 C 17.085938 -11.8125 15.597656 -10.9375 13.609375 -10.5 L 19.90625 0 Z M 6.046875 -12.875 L 10.875 -12.875 C 12.644531 -12.875 13.972656 -13.3125 14.859375 -14.1875 C 15.742188 -15.070312 16.1875 -16.242188 16.1875 -17.703125 C 16.1875 -19.191406 15.75 -20.34375 14.875 -21.15625 C 14 -21.96875 12.664062 -22.375 10.875 -22.375 L 6.046875 -22.375 Z M 6.046875 -12.875 "/></g></g></g><g fill="#ffffff" fill-opacity="1"><g transform="translate(963.523496, 1090.757574)"><g><path d="M 6.046875 -25.078125 L 6.046875 0 L 2.765625 0 L 2.765625 -25.078125 Z M 6.046875 -25.078125 "/></g></g></g><g fill="#ffffff" fill-opacity="1"><g transform="translate(981.981259, 1090.757574)"><g><path d="M 18.203125 -25.078125 L 18.203125 -22.421875 L 11.375 -22.421875 L 11.375 0 L 8.09375 0 L 8.09375 -22.421875 L 1.21875 -22.421875 L 1.21875 -25.078125 Z M 18.203125 -25.078125 "/></g></g></g><g fill="#ffffff" fill-opacity="1"><g transform="translate(1011.052133, 1090.757574)"><g><path d="M 20.328125 -25.078125 L 12.15625 -9.46875 L 12.15625 0 L 8.890625 0 L 8.890625 -9.46875 L 0.6875 -25.078125 L 4.3125 -25.078125 L 10.5 -12.375 L 16.703125 -25.078125 Z M 20.328125 -25.078125 "/></g></g></g></svg>